<svg width="98" height="42" viewBox="0 0 98 42" fill="none" xmlns="http://www.w3.org/2000/svg">
<path d="M23.5737 19.3664C23.7973 19.7545 24.0113 20.178 24.2159 20.6368L14.4201 26.3061C15.1911 27.4721 16.1471 28.1827 17.2881 28.4379C18.4354 28.6696 19.5458 28.4748 20.6193 27.8535C21.499 27.3444 22.1135 26.72 22.4629 25.9805C22.8185 25.2173 22.9179 24.4234 22.7609 23.5986L24.9527 22.3301C25.3039 23.6993 25.2024 25.0418 24.6483 26.3577C24.0855 27.6587 23.0735 28.732 21.6124 29.5777C20.4494 30.2507 19.2552 30.5935 18.0299 30.6061C16.8195 30.61 15.6782 30.2852 14.6061 29.6318C13.5254 28.9635 12.6196 27.995 11.8888 26.7261C11.158 25.4572 10.7709 24.1984 10.7276 22.9496C10.6843 21.7009 10.9712 20.5595 11.5884 19.5256C12.2119 18.4681 13.12 17.5942 14.3128 16.9039C15.4758 16.2308 16.6507 15.8892 17.8376 15.879C19.0246 15.8688 20.1145 16.1735 21.1075 16.793C22.1068 17.389 22.9289 18.2468 23.5737 19.3664ZM21.2264 20.1576C20.7793 19.3814 20.2252 18.8163 19.5642 18.4625C18.8945 18.0937 18.1798 17.9401 17.4201 18.0016C16.6666 18.0396 15.9321 18.2656 15.2164 18.6798C14.1876 19.2752 13.4971 20.1128 13.1448 21.1924C12.8074 22.2634 12.9219 23.4113 13.4881 24.6361L21.2264 20.1576Z" fill="#138AA4"/>
<path d="M29.559 10.0933L33.1051 28.8835L30.7948 29.3216L27.2487 10.5314L29.559 10.0933Z" fill="#767878"/>
<path fill-rule="evenodd" clip-rule="evenodd" d="M41.3221 28.756V14.5612H38.9706V28.756H41.3221Z" fill="#767878"/>
<path d="M40.1851 12.2559C39.7372 12.2559 39.3582 12.1005 39.0481 11.7896C38.738 11.4788 38.583 11.0989 38.583 10.6499C38.583 10.2009 38.738 9.82103 39.0481 9.5102C39.3582 9.19936 39.7372 9.04395 40.1851 9.04395C40.6158 9.04395 40.9775 9.19936 41.2704 9.5102C41.5805 9.82103 41.7355 10.2009 41.7355 10.6499C41.7355 11.0989 41.5805 11.4788 41.2704 11.7896C40.9775 12.1005 40.6158 12.2559 40.1851 12.2559Z" fill="#138AA4"/>
<path d="M55.183 14.8399C56.9057 14.8399 58.3011 15.3653 59.3691 16.4162C60.4372 17.4498 60.9712 18.9485 60.9712 20.9124V29.2588H58.6456V21.2483C58.6456 19.8357 58.2925 18.759 57.5862 18.0183C56.8799 17.2603 55.9151 16.8813 54.692 16.8813C53.4517 16.8813 52.4612 17.2689 51.7204 18.0441C50.9969 18.8193 50.6351 19.9477 50.6351 21.4292V29.2588H48.2836V15.0983H50.6351V17.1138C51.1002 16.3903 51.729 15.8304 52.5215 15.4342C53.3311 15.038 54.2183 14.8399 55.183 14.8399Z" fill="#767878"/>
<path d="M72.8881 15.689C74.0948 15.8884 75.1052 16.326 75.9194 17.0018C76.7505 17.6805 77.3213 18.4558 77.6318 19.3277L78.0512 16.7779L80.3967 17.1656L78.0483 31.4443C77.8387 32.7192 77.3808 33.8046 76.6748 34.7007C75.966 35.6137 75.0555 36.2664 73.9435 36.6589C72.8485 37.0541 71.6296 37.1408 70.2869 36.9189C68.4513 36.6155 66.9929 35.9292 65.9117 34.8601C64.8306 33.7909 64.3025 32.4902 64.3276 30.9578L66.6221 31.337C66.7373 32.229 67.1523 32.996 67.8673 33.638C68.5794 34.297 69.4964 34.7192 70.6182 34.9045C71.8929 35.1152 72.9954 34.8871 73.9256 34.2202C74.8728 33.556 75.4652 32.5016 75.7028 31.0567L76.1851 28.1244C75.592 28.8645 74.8003 29.4321 73.8101 29.8272C72.8198 30.2223 71.7213 30.3201 70.5146 30.1207C69.2738 29.9156 68.1939 29.4229 67.2747 28.6424C66.3726 27.8647 65.7235 26.8757 65.3273 25.6753C64.9311 24.4749 64.8491 23.1693 65.0811 21.7584C65.316 20.3305 65.8104 19.1289 66.5644 18.1535C67.3212 17.1611 68.2499 16.4502 69.3505 16.021C70.4681 15.5946 71.6473 15.4839 72.8881 15.689ZM76.9064 23.7388C77.0797 22.6849 77.0182 21.7319 76.7219 20.8797C76.4256 20.0276 75.9456 19.3371 75.2818 18.8084C74.6379 18.2655 73.8825 17.9224 73.0157 17.7791C72.1489 17.6359 71.325 17.7092 70.544 17.9992C69.7631 18.2892 69.0959 18.7901 68.5424 19.5018C67.9889 20.2135 67.6254 21.0963 67.4521 22.1502C67.276 23.2211 67.3347 24.1912 67.6282 25.0603C67.9245 25.9125 68.3946 26.61 69.0386 27.1529C69.6853 27.6789 70.4421 28.0135 71.3089 28.1567C72.1757 28.3 72.9996 28.2266 73.7806 27.9366C74.5813 27.6324 75.2584 27.1245 75.8119 26.4127C76.3682 25.684 76.733 24.7927 76.9064 23.7388Z" fill="#767878"/>
<mask id="mask0_110_68" style="mask-type:alpha" maskUnits="userSpaceOnUse" x="83" y="14" width="15" height="15">
<path d="M90.739 28.7196C89.4125 28.7196 88.2066 28.4174 87.1213 27.813C86.0533 27.2086 85.2091 26.3538 84.589 25.2486C83.986 24.1261 83.6846 22.831 83.6846 21.3632C83.6846 19.9126 83.9947 18.6347 84.6148 17.5296C85.2522 16.4071 86.1136 15.5523 87.1989 14.9652C88.2841 14.3608 89.4986 14.0586 90.8423 14.0586C92.186 14.0586 93.4005 14.3608 94.4858 14.9652C95.5711 15.5523 96.4238 16.3985 97.044 17.5037C97.6814 18.6088 98.0001 19.8954 98.0001 21.3632C98.0001 22.831 97.6728 24.1261 97.0182 25.2486C96.3808 26.3538 95.5108 27.2086 94.4083 27.813C93.3058 28.4174 92.0827 28.7196 90.739 28.7196ZM90.739 26.6473C91.5831 26.6473 92.3755 26.4488 93.1163 26.0516C93.857 25.6544 94.4514 25.0586 94.8993 24.2643C95.3644 23.4699 95.597 22.5029 95.597 21.3632C95.597 20.2235 95.373 19.2564 94.9251 18.4621C94.4772 17.6677 93.8915 17.0806 93.168 16.7007C92.4444 16.3035 91.6606 16.1049 90.8165 16.1049C89.9552 16.1049 89.1627 16.3035 88.4392 16.7007C87.7329 17.0806 87.1644 17.6677 86.7337 18.4621C86.3031 19.2564 86.0877 20.2235 86.0877 21.3632C86.0877 22.5202 86.2944 23.4958 86.7079 24.2902C87.1386 25.0845 87.707 25.6803 88.4133 26.0775C89.1196 26.4574 89.8949 26.6473 90.739 26.6473Z" fill="white"/>
</mask>
<g mask="url(#mask0_110_68)">
<rect x="82.4546" y="14.0586" width="31.0906" height="15.1584" fill="url(#paint0_linear_110_68)"/>
</g>
<defs>
<linearGradient id="paint0_linear_110_68" x1="97.9999" y1="14.0586" x2="103.256" y2="29.7631" gradientUnits="userSpaceOnUse">
<stop stop-color="#07B4DA"/>
<stop offset="1" stop-color="#999999"/>
</linearGradient>
</defs>
</svg>
